<?xml version="1.0"?>
<svg xmlns="http://www.w3.org/2000/svg" height="500" width="592.0" class="svg" id="svg1">


  <rect width="90" height="90" stroke="green" stroke-width="3" fill="yellow" filter="url(#f1)" id="rect2"/>
 
  <text transform="rotate(30 20,40)" x="0" y="15" fill="red" alt="Text rotated" id="text3">I love SVG!</text>

<g id="g4" transform="matrix(1.0 0.0 0.0 1.0 0.0 0.0)"><g id="g5">
<g filter="url(#f1)" id="g6">

<path alt="Dot 1" d="M 110.5729 246.8671 L 109.6529 245.8271 L 109.3600 245.1200 L 109.1200 241.9999 L 110.0500 239.1200 L 110.8529 237.2929 L 112.8400 236.2000 L 114.0000 236.2400 L 114.7071 236.5329 L 115.9071 237.4529 L 116.8672 239.0929 L 117.1600 239.8001 L 116.8800 242.1600 L 116.5871 242.8671 L 114.8671 245.6271 L 113.0671 246.9071 L 112.3600 247.2000 L 111.2800 247.1600 M 112.4210 238.6110 L 112.9600 239.2001 L 113.1950 240.4800 L 113.1850 241.7200 L 112.6800 242.2251 L 112.1751 241.7200 L 111.7254 240.0840 L 111.1200 241.9999 L 111.3283 244.7083 L 111.7431 245.1772 L 112.0793 245.1896 L 113.4529 244.2129 L 114.9148 241.8670 L 115.1396 239.9720 L 114.4929 238.8671 L 113.6596 238.2282 L 113.0661 238.2078 Z" fill="#000000" fill-opacity="1.00" stroke="red" stroke-linecap="round" id="path7"/>

<path d="M 109.7600 325.7900 L 108.7701 324.8000 L 108.1700 323.3200 L 108.0950 319.7199 L 108.9950 317.6000 L 110.4129 315.8529 L 111.1200 315.5601 L 112.4000 315.3600 L 115.6671 316.6129 L 116.3600 318.1199 L 115.9200 320.7599 L 115.6271 321.4671 L 113.7949 324.2401 L 111.1601 326.6700 L 110.6801 326.5900 M 112.0250 317.7600 L 112.5800 318.9999 L 112.0800 319.5000 L 111.1588 318.5357 L 110.5723 318.4691 L 110.0650 319.7199 L 110.1500 323.3200 L 110.6692 324.6005 L 111.1601 324.6900 L 111.9428 324.0003 L 113.9664 320.4815 L 114.3448 318.2111 L 114.2699 318.0612 L 112.4000 317.3600 L 111.7297 317.4647 Z" fill="#000000" fill-opacity="1.00" stroke="blue" stroke-linecap="round" id="path8"/>

<path d="M 113.6800 387.2801 L 114.3871 387.5730 L 114.9600 389.1200 L 114.0000 393.4001 L 111.6671 397.6671 L 110.0800 398.2400 L 109.3730 397.9471 L 108.4529 397.0271 L 107.7599 395.0800 L 107.4800 389.4801 L 108.0800 387.0400 L 108.3729 386.3329 L 109.0800 386.0399 L 109.8400 385.9950 L 110.3625 386.5175 L 110.6000 386.2800 L 111.2666 386.6938 M 109.4801 389.4801 L 109.7600 395.0800 L 109.9627 395.7085 L 110.3454 396.0913 L 112.0721 393.0779 L 112.9600 389.1200 L 110.1728 388.3071 L 109.9019 387.7646 Z" fill="#000000" fill-opacity="1.00" stroke="transparent" stroke-linecap="round" id="path9"/><path transform="matrix(1.0000 0.0000 0.0000 1.0000 0.0000 0.0000)" d="M 193.0529 248.0271 L 192.2129 246.9071 L 191.9200 246.2000 L 191.0800 243.1600 L 191.4000 239.3599 L 191.6928 238.6529 L 192.5729 237.6529 L 193.2800 237.3600 L 194.4400 237.2100 L 194.7046 237.4746 L 195.3729 236.3730 L 196.0800 236.0800 L 197.0800 235.9600 L 199.7471 237.0529 L 201.0671 238.4929 L 201.8400 241.1600 L 200.7870 244.2672 L 197.9871 246.5071 L 195.2271 248.1472 L 194.5200 248.4400 M 196.4235 238.3324 L 196.2300 239.1601 L 195.8517 239.5384 L 195.7849 240.2800 L 195.2800 240.7850 L 194.7749 240.2800 L 194.4063 239.1950 L 193.7958 239.2843 L 193.3651 239.7738 L 193.0800 243.1600 L 193.7815 245.6987 L 194.3129 246.4074 L 196.5728 245.0929 L 199.2805 242.9267 L 199.8400 241.1600 L 199.4895 239.7288 L 198.3390 238.4739 L 197.0800 237.9601 L 196.6363 238.0133 Z" fill="#000000" fill-opacity="1.00" stroke="transparent" stroke-linecap="round" id="path10"/><path transform="matrix(1.0000 0.0000 0.0000 1.0000 0.0000 0.0000)" d="M 271.5201 233.7951 L 270.9251 233.2001 L 271.3400 232.5601 L 272.2799 231.6200 L 274.4399 231.3600 L 277.1871 232.4128 L 278.5871 233.7329 L 279.5200 236.2000 L 279.1600 239.4800 L 277.1471 243.8672 L 275.1471 245.7471 L 272.5199 246.5600 L 270.0529 245.4270 L 269.0129 243.9070 L 268.7201 243.2001 L 268.1600 240.4001 L 268.7600 237.6399 L 269.0530 236.9329 L 270.6529 234.5728 L 271.3600 234.2800 L 273.2400 233.9501 L 274.1699 234.8800 L 274.2151 235.2399 L 273.3451 238.1201 L 272.8400 238.6250 L 272.3349 238.1201 L 272.5427 235.9843 L 271.9723 236.1270 L 270.6719 238.0450 L 270.1600 240.4001 L 270.6413 242.8060 L 271.4671 244.0129 L 272.5797 244.5439 L 273.8845 244.1905 L 275.7329 242.4529 L 277.1715 239.3746 L 277.5200 236.2000 L 277.1185 235.0958 L 275.8247 233.8759 L 274.4399 233.3600 L 272.2799 233.5000 Z" fill="#000000" fill-opacity="1.00" stroke="transparent" stroke-linecap="round" id="path11"/><path transform="matrix(1.0000 0.0000 0.0000 1.0000 0.0000 0.0000)" d="M 187.8901 318.6800 L 186.6100 315.9600 L 186.8549 314.2400 L 188.5300 311.5599 L 189.4400 310.6499 L 190.6051 311.7200 L 190.5000 312.1601 L 190.0000 312.6600 L 189.8240 312.4845 L 188.8250 314.2400 L 188.5901 315.9600 L 189.6900 318.2976 L 190.0000 318.5301 L 191.5600 318.3700 L 193.9329 316.0530 L 195.1906 313.7693 L 195.5201 311.2799 L 195.1680 310.3179 L 193.9513 309.5256 L 192.0000 309.6800 L 191.2928 309.3871 L 190.9999 308.6800 L 191.2928 307.9730 L 192.4401 307.5600 L 194.2000 307.5200 L 194.9070 307.8129 L 196.6272 308.9329 L 197.5201 311.2799 L 197.1599 314.0000 L 195.3471 317.4672 L 191.5600 320.3499 L 190.0000 320.5100 Z" fill="#000000" fill-opacity="1.00" stroke="transparent" stroke-linecap="round" id="path12"/><path transform="matrix(1.0000 0.0000 0.0000 1.0000 0.0000 0.0000)" d="M 268.7199 314.6400 L 269.4271 314.9330 L 273.2671 317.7329 L 273.5600 318.4401 L 272.8671 320.3471 L 267.9471 324.6671 L 265.8000 325.4800 L 264.2929 324.7471 L 263.4000 322.6400 L 263.7628 318.9972 L 263.2801 319.4801 L 262.7200 318.9200 L 263.2600 317.4001 L 265.1729 314.9729 L 267.3200 314.2400 M 265.8700 317.7200 L 265.4019 322.6207 L 265.7071 323.3329 L 265.9053 323.4419 L 266.6056 323.1890 L 271.4276 318.8370 L 268.0822 316.4579 L 267.5999 316.9400 L 266.2320 316.8719 Z" fill="#000000" fill-opacity="1.00" stroke="transparent" stroke-linecap="round" id="path13"/><path transform="matrix(1.0000 0.0000 0.0000 1.0000 0.0000 0.0000)" d="M 190.3728 395.2671 L 189.4928 394.5071 L 187.8801 390.9999 L 187.8801 388.0424 L 187.2400 386.8801 L 187.7729 385.1328 L 189.3328 383.7729 L 190.0401 383.4799 L 191.9599 383.1200 L 194.3201 383.5599 L 198.0271 385.1730 L 198.8271 386.2130 L 199.1200 386.9200 L 199.3600 388.4000 L 198.0672 391.9471 L 196.7470 393.4671 L 193.6272 395.4671 L 192.9200 395.7600 L 191.0801 395.5600 M 190.2250 385.6424 L 190.7500 386.4800 L 190.4601 387.2800 L 189.9601 387.7800 L 189.8799 387.6999 L 189.8799 390.9139 L 190.9071 393.0929 L 191.5009 393.6057 L 192.7061 393.7368 L 195.3329 392.0529 L 196.5791 390.6177 L 197.3599 388.4000 L 197.1870 387.3335 L 196.6129 386.5871 L 194.2480 385.5466 L 191.9599 385.1200 L 190.5130 385.3912 Z" fill="#000000" fill-opacity="1.00" stroke="transparent" stroke-linecap="round" id="path14"/><path transform="matrix(1.0000 0.0000 0.0000 1.0000 0.0000 0.0000)" d="M 273.2270 379.9330 L 273.6671 380.3329 L 273.9599 381.0400 L 274.4399 383.1600 L 273.6800 386.5600 L 273.3871 387.2671 L 270.6671 392.0671 L 268.1471 394.6270 L 266.6000 395.1600 L 265.8929 394.8670 L 264.7329 393.9070 L 263.0399 390.2799 L 262.4800 386.7599 L 263.2129 384.7729 L 264.8930 382.2530 L 266.7601 381.4401 L 267.3247 381.5358 L 267.6529 381.2529 L 271.0001 379.6799 L 272.5201 379.6400 M 271.1090 381.6771 L 269.0671 382.6671 L 268.6572 383.0206 L 268.2200 384.2401 L 267.7199 384.7400 L 267.2999 384.3200 L 266.6799 384.9399 L 265.9991 384.1289 L 264.7299 386.0331 L 264.4800 386.7599 L 265.0170 390.1356 L 266.1471 392.4930 L 266.8604 393.0834 L 269.2530 390.6529 L 271.7502 386.2456 L 272.4399 383.1600 L 272.0984 381.6511 Z" fill="#000000" fill-opacity="1.00" stroke="transparent" stroke-linecap="round" id="path15"/><path transform="matrix(1.0000 0.0000 0.0000 1.0000 0.0000 0.0000)" d="M 110.9471 323.5331 L 111.2402 324.2400 L 111.4403 326.7997 L 111.3602 336.8803 L 112.9600 354.4799 L 112.8399 362.1202 L 112.2802 373.2002 L 111.5048 381.2402 L 109.9200 383.0200 L 109.3002 382.4003 L 109.6152 381.2402 L 110.2802 373.2002 L 110.8399 362.1202 L 110.9600 354.4799 L 109.3602 336.8803 L 109.4403 326.7997 L 109.2350 324.2000 L 109.5326 323.5331 L 110.2402 323.2400 Z" fill="#000000" fill-opacity="1.00" stroke="transparent" stroke-linecap="round" id="path16"/><path transform="matrix(1.0000 0.0000 0.0000 1.0000 0.0000 0.0000)" d="M 110.0539 243.9080 L 110.3601 243.8204 L 110.8604 244.3198 L 110.5975 245.0215 L 110.6799 268.9999 L 111.8802 290.0797 L 112.0000 301.8802 L 112.5197 305.1204 L 112.5250 306.7603 L 112.3250 308.0400 L 112.4598 309.2800 L 111.4197 312.1599 L 111.5403 312.5598 L 111.0401 313.0600 L 110.5399 312.5598 L 110.4200 312.1599 L 111.4601 309.2800 L 110.9547 308.0400 L 110.9150 306.7603 L 110.0000 301.8802 L 109.8802 290.0797 L 108.6798 268.9999 L 108.5997 244.7197 L 108.8932 244.0128 L 109.6001 243.7200 Z" fill="#000000" fill-opacity="1.00" stroke="transparent" stroke-linecap="round" id="path17"/><path transform="matrix(1.0000 0.0000 0.0000 1.0000 0.0000 0.0000)" d="M 148.7998 243.8404 L 140.3203 244.0003 L 126.1997 242.1601 L 119.5998 240.5747 L 119.2398 240.7201 L 118.4000 239.8803 L 119.5998 238.6250 L 126.1997 240.1600 L 140.3203 242.0002 L 148.7998 241.8402 L 164.8402 240.9997 L 176.0800 240.8800 L 184.9203 242.1199 L 185.6271 242.4128 L 185.9200 243.1203 L 186.0200 244.2398 L 185.5198 244.7400 L 184.5595 244.0697 L 176.0800 242.8801 L 164.8402 242.9998 Z" fill="#000000" fill-opacity="1.00" stroke="transparent" stroke-linecap="round" id="path18"/><path transform="matrix(1.0000 0.0000 0.0000 1.0000 0.0000 0.0000)" d="M 247.8397 245.2002 L 229.0397 242.8000 L 216.6801 242.6799 L 204.9603 243.6601 L 204.1800 242.8798 L 205.3600 241.6698 L 216.6801 240.6800 L 229.0397 240.8000 L 247.8397 243.1997 L 257.4750 244.1426 L 257.9600 243.4998 L 259.4671 244.4128 L 259.7600 245.1198 L 259.4671 245.8269 L 258.3597 246.2398 Z" fill="#000000" fill-opacity="1.00" stroke="transparent" stroke-linecap="round" id="path19"/><path transform="matrix(1.0000 0.0000 0.0000 1.0000 0.0000 0.0000)" d="M 271.5650 250.2398 L 271.7198 250.9600 L 272.0801 261.1601 L 272.5198 267.6800 L 273.5599 272.4402 L 272.7599 280.4000 L 272.4399 289.0001 L 272.4710 292.9031 L 272.8801 293.6799 L 272.5873 294.3873 L 271.4802 295.0000 L 270.7729 294.7072 L 270.4801 293.9998 L 270.4402 289.0001 L 270.7601 280.4000 L 271.5601 272.4402 L 270.5200 267.6800 L 270.0798 261.1601 L 269.7200 250.9600 L 269.7949 250.2398 L 270.6802 249.3550 Z" fill="#000000" fill-opacity="1.00" stroke="transparent" stroke-linecap="round" id="path20"/><path transform="matrix(1.0000 0.0000 0.0000 1.0000 0.0000 0.0000)" d="M 272.9797 326.2001 L 272.0401 340.5999 L 272.2758 367.1669 L 272.6799 367.9199 L 272.3871 368.6271 L 271.2800 368.9600 L 270.5728 368.6672 L 270.2800 367.9600 L 270.0400 340.5999 L 270.7600 328.7999 L 271.1801 326.2001 L 272.0801 325.3000 Z" fill="#000000" fill-opacity="1.00" stroke="transparent" stroke-linecap="round" id="path21"/><path transform="matrix(1.0000 0.0000 0.0000 1.0000 0.0000 0.0000)" d="M 218.8801 387.2400 L 210.2398 389.8398 L 208.5303 389.9330 L 206.7601 391.0151 L 206.0650 390.3200 L 207.0719 389.0370 L 207.3331 388.2530 L 208.0401 387.9602 L 208.5202 387.8001 L 208.8056 387.9184 L 210.2398 387.8401 L 218.8801 385.2398 L 225.0401 384.2400 L 228.1601 384.3600 L 241.6401 386.6002 L 245.7999 386.2199 L 246.7800 387.2000 L 244.3199 389.9401 L 243.8200 389.4402 L 244.4624 388.3150 L 241.6401 388.5999 L 228.1601 386.3601 L 225.0401 386.2401 Z" fill="#000000" fill-opacity="1.00" stroke="transparent" stroke-linecap="round" id="path22"/><path transform="matrix(1.0000 0.0000 0.0000 1.0000 0.0000 0.0000)" d="M 192.1198 327.4651 L 193.0951 328.4399 L 193.1549 330.5599 L 193.0602 332.3199 L 192.4200 334.2134 L 191.1599 358.6400 L 192.0801 370.2398 L 191.6856 373.6979 L 191.9599 374.3597 L 191.1900 375.8402 L 190.6002 376.4300 L 190.0098 375.8402 L 189.5598 374.7997 L 190.0802 370.2398 L 189.1600 358.6400 L 190.7198 328.4002 L 191.0127 327.6928 L 191.7200 327.4000 Z" fill="#000000" fill-opacity="1.00" stroke="green" stroke-linecap="round" id="path23"/>
</g>
</g>
</g>
</svg>
